<svg xmlns="http://www.w3.org/2000/svg" width="100" height="100" viewBox="0 0 100 100">
  <g id="Group_49" data-name="Group 49" transform="translate(-1111 -3598)">
    <circle id="Ellipse_1" data-name="Ellipse 1" cx="50" cy="50" r="50" transform="translate(1111 3598)" fill="#fff"/>
    <g id="device_1_" data-name="device (1)" transform="translate(1119.723 3544.92)">
      <path id="Path_80" data-name="Path 80" d="M70.8,93.955h-.537v-10.2A3.761,3.761,0,0,0,66.5,80H16.051a3.761,3.761,0,0,0-3.757,3.757V100.4h-.537A3.761,3.761,0,0,0,8,104.153V122.4a3.761,3.761,0,0,0,3.757,3.757h9.661a3.761,3.761,0,0,0,3.757-3.757v-3.757h9.359L34,120.792H31.616a1.073,1.073,0,0,0-1.073,1.073v3.22a1.073,1.073,0,0,0,1.073,1.073H50.939a1.073,1.073,0,0,0,1.073-1.073v-3.22a1.073,1.073,0,0,0-1.073-1.073H48.557l-.537-2.147h5.065V122.4a3.761,3.761,0,0,0,3.757,3.757H70.8a3.761,3.761,0,0,0,3.757-3.757V97.712A3.761,3.761,0,0,0,70.8,93.955ZM23.028,122.4a1.612,1.612,0,0,1-1.61,1.61H11.757a1.612,1.612,0,0,1-1.61-1.61V104.153a1.612,1.612,0,0,1,1.61-1.61h.836l.829,2.486a1.073,1.073,0,0,0,1.018.734h4.294a1.073,1.073,0,0,0,1.018-.734l.829-2.486h.836a1.612,1.612,0,0,1,1.61,1.61Zm-8.172-19.859h3.462l-.358,1.073H15.215Zm35.008,20.4v1.073H32.69v-1.073Zm-13.653-2.147.537-2.147h9.057l.537,2.147ZM53.085,116.5H25.175V112.2h27.91Zm0-18.786v12.345H25.175v-5.9a3.761,3.761,0,0,0-3.757-3.757H14.441V83.757a1.612,1.612,0,0,1,1.61-1.61H66.5a1.612,1.612,0,0,1,1.61,1.61v10.2H56.843A3.761,3.761,0,0,0,53.085,97.712ZM65.551,96.1l-.358,1.073H62.447L62.089,96.1Zm6.857,26.3a1.612,1.612,0,0,1-1.61,1.61H56.843a1.612,1.612,0,0,1-1.61-1.61V97.712a1.612,1.612,0,0,1,1.61-1.61h2.983l.829,2.486a1.073,1.073,0,0,0,1.018.734h4.294a1.073,1.073,0,0,0,1.018-.734l.829-2.486H70.8a1.612,1.612,0,0,1,1.61,1.61Z" fill="#2f0a00"/>
      <path id="Path_81" data-name="Path 81" d="M405.367,384h-4.294a1.073,1.073,0,1,0,0,2.147h4.294a1.073,1.073,0,1,0,0-2.147Z" transform="translate(-339.4 -263.208)" fill="#2f0a00"/>
      <path id="Path_82" data-name="Path 82" d="M53.367,384H49.073a1.073,1.073,0,1,0,0,2.147h4.294a1.073,1.073,0,1,0,0-2.147Z" transform="translate(-34.633 -263.208)" fill="#2f0a00"/>
      <path id="Path_83" data-name="Path 83" d="M243.22,328h-2.147a1.073,1.073,0,0,0,0,2.147h2.147a1.073,1.073,0,1,0,0-2.147Z" transform="translate(-200.87 -214.723)" fill="#2f0a00"/>
    </g>
  </g>
</svg>
