<svg xmlns="http://www.w3.org/2000/svg" width="100" height="100" viewBox="0 0 100 100">
  <g id="Group_47" data-name="Group 47" transform="translate(-523 -3598)">
    <circle id="Ellipse_1" data-name="Ellipse 1" cx="50" cy="50" r="50" transform="translate(523 3598)" fill="#fff"/>
    <g id="browser" transform="translate(546.84 3619.194)">
      <path id="Path_53" data-name="Path 53" d="M51.535,45.254a.785.785,0,0,0,.785-.785V23.106A1.809,1.809,0,0,0,50.514,21.3H49.29V11.665a1.686,1.686,0,0,0-1.684-1.684h-.983v-8.4A1.579,1.579,0,0,0,45.045,0H7.275A1.579,1.579,0,0,0,5.7,1.577v8.4H4.714A1.686,1.686,0,0,0,3.03,11.665V21.3H1.807A1.809,1.809,0,0,0,0,23.107V51.8a1.808,1.808,0,0,0,1.807,1.806H50.514A1.809,1.809,0,0,0,52.32,51.8V47.889a.785.785,0,1,0-1.571,0V51.8a.236.236,0,0,1-.236.236H1.807a.236.236,0,0,1-.236-.236V30.179H50.75v14.29A.785.785,0,0,0,51.535,45.254ZM45.052,1.577v4.09H7.272l0-4.1ZM4.714,11.552H19.856a.785.785,0,0,0,0-1.571H7.269l0-2.743H45.052V9.981H23.275a.785.785,0,1,0,0,1.571H47.606a.114.114,0,0,1,.114.114v4.751H4.6V11.665A.114.114,0,0,1,4.714,11.552ZM1.571,28.608v-5.5a.236.236,0,0,1,.236-.236H29.75a.785.785,0,0,0,0-1.571H4.6V17.987H47.72V21.3H33.17a.785.785,0,1,0,0,1.571H50.514a.236.236,0,0,1,.236.236v5.5Zm0,0" fill="#2f0a00"/>
      <path id="Path_54" data-name="Path 54" d="M367.506,229.785h-1.838a.785.785,0,1,0,0,1.571h1.838a.785.785,0,1,0,0-1.571Zm0,0" transform="translate(-326.676 -205.725)" fill="#2f0a00"/>
      <path id="Path_55" data-name="Path 55" d="M367.506,247.988h-1.838a.785.785,0,1,0,0,1.571h1.838a.785.785,0,1,0,0-1.571Zm0,0" transform="translate(-326.676 -222.022)" fill="#2f0a00"/>
      <path id="Path_56" data-name="Path 56" d="M418.647,231.191a.786.786,0,0,0-1.111,0l-.2.2-.2-.2a.785.785,0,1,0-1.11,1.11l.2.2-.2.2a.785.785,0,0,0,1.11,1.11l.2-.2.2.2a.785.785,0,1,0,1.111-1.11l-.2-.2.2-.2A.786.786,0,0,0,418.647,231.191Zm0,0" transform="translate(-372.254 -206.777)" fill="#2f0a00"/>
      <path id="Path_57" data-name="Path 57" d="M396.575,122.38a.786.786,0,0,0,1.111,0l.108-.108.108.108a.785.785,0,0,0,1.11-1.11l-.109-.108.109-.108a.785.785,0,1,0-1.11-1.11l-.108.108-.108-.108a.785.785,0,1,0-1.111,1.11l.109.108-.109.108A.786.786,0,0,0,396.575,122.38Zm0,0" transform="translate(-354.844 -107.177)" fill="#2f0a00"/>
      <path id="Path_58" data-name="Path 58" d="M367.3,24.411a2.376,2.376,0,0,1,1.614.23.785.785,0,0,0,.579-1.315,1.224,1.224,0,1,0-2.216,0A.785.785,0,0,0,367.3,24.411Zm0,0" transform="translate(-328.631 -19.707)" fill="#2f0a00"/>
      <path id="Path_59" data-name="Path 59" d="M78.649,127.621h7.616a.785.785,0,1,0,0-1.571H78.649a.785.785,0,1,0,0,1.571Zm0,0" transform="translate(-69.71 -112.852)" fill="#2f0a00"/>
      <path id="Path_60" data-name="Path 60" d="M107.3,28.633h7.616a.785.785,0,0,0,0-1.571H107.3a.785.785,0,0,0,0,1.571Zm0,0" transform="translate(-95.362 -24.229)" fill="#2f0a00"/>
      <path id="Path_61" data-name="Path 61" d="M63.233,239.957H55.617a.785.785,0,0,0,0,1.571h7.616a.785.785,0,0,0,0-1.571Zm0,0" transform="translate(-49.091 -214.831)" fill="#2f0a00"/>
      <path id="Path_62" data-name="Path 62" d="M69.469,313.082a3.645,3.645,0,1,0,3.644,3.645A3.649,3.649,0,0,0,69.469,313.082Zm0,5.719a2.074,2.074,0,1,1,2.074-2.074A2.077,2.077,0,0,1,69.469,318.8Zm0,0" transform="translate(-58.932 -280.299)" fill="#2f0a00"/>
      <path id="Path_63" data-name="Path 63" d="M69.469,399.586a3.645,3.645,0,1,0,3.644,3.644A3.649,3.649,0,0,0,69.469,399.586Zm0,5.719a2.074,2.074,0,1,1,2.074-2.074A2.077,2.077,0,0,1,69.469,405.3Zm0,0" transform="translate(-58.932 -357.746)" fill="#2f0a00"/>
      <path id="Path_64" data-name="Path 64" d="M161.2,326.6h2.757a.785.785,0,0,0,0-1.571H161.2a.785.785,0,1,0,0,1.571Zm0,0" transform="translate(-143.621 -290.994)" fill="#2f0a00"/>
      <path id="Path_65" data-name="Path 65" d="M183.055,347.969H161.2a.785.785,0,1,0,0,1.571h21.852a.785.785,0,1,0,0-1.571Zm0,0" transform="translate(-143.621 -311.533)" fill="#2f0a00"/>
      <path id="Path_66" data-name="Path 66" d="M161.2,416.992h2.757a.785.785,0,1,0,0-1.571H161.2a.785.785,0,1,0,0,1.571Zm0,0" transform="translate(-143.621 -371.923)" fill="#2f0a00"/>
      <path id="Path_67" data-name="Path 67" d="M161.2,439.934h21.852a.785.785,0,1,0,0-1.571H161.2a.785.785,0,1,0,0,1.571Zm0,0" transform="translate(-143.621 -392.463)" fill="#2f0a00"/>
    </g>
  </g>
</svg>
