<svg xmlns="http://www.w3.org/2000/svg" width="100" height="100" viewBox="0 0 100 100">
  <g id="Group_46" data-name="Group 46" transform="translate(-229 -3598)">
    <circle id="Ellipse_1" data-name="Ellipse 1" cx="50" cy="50" r="50" transform="translate(229 3598)" fill="#fff"/>
    <g id="Page-1" transform="translate(252 3621)">
      <g id="_037---Wallet-Money-Movent" data-name="037---Wallet-Money-Movent" transform="translate(0 0)">
        <path id="Shape" d="M35.122,32.731V27.239a1.831,1.831,0,0,0-1.831-1.831H17.73V20.831a1.831,1.831,0,0,0-3.069-1.346L4.592,28.639a1.82,1.82,0,0,0,0,2.691l10.064,9.154a1.81,1.81,0,0,0,1.236.485,1.854,1.854,0,0,0,.745-.157,1.8,1.8,0,0,0,1.094-1.673V34.561H33.291A1.831,1.831,0,0,0,35.122,32.731Zm-18.307,0a.915.915,0,0,0-.915.915l-.006,5.486L5.831,29.994,15.9,20.831v5.492a.915.915,0,0,0,.915.915H33.291v5.492Z" transform="translate(-0.338 -1.608)" fill="#2f0a00"/>
        <path id="Shape-2" data-name="Shape" d="M42.465,32.488a1.831,1.831,0,0,0-3.073,1.343v4.577H23.831A1.831,1.831,0,0,0,22,40.238v5.492a1.831,1.831,0,0,0,1.831,1.831H39.392v4.577a1.8,1.8,0,0,0,1.1,1.673,1.861,1.861,0,0,0,.741.157,1.8,1.8,0,0,0,1.229-.485L52.53,44.33a1.82,1.82,0,0,0,0-2.691Zm-1.242,19.65V46.646a.915.915,0,0,0-.915-.915H23.831V40.238H40.307a.915.915,0,0,0,.915-.915l.006-5.486L51.3,42.975Z" transform="translate(-1.862 -2.709)" fill="#2f0a00"/>
        <path id="Shape-3" data-name="Shape" d="M52.176,13.86V10.984a3.661,3.661,0,0,0-3.661-3.661H41.965L39.086,2.3a2.752,2.752,0,0,0-3.753-1.019L32.044,3.174,29.953.9a2.734,2.734,0,0,0-3.88-.171L23.25,3.319,20.435,1.4a2.761,2.761,0,0,0-3.815.716l-3.566,5.21H4.119A4.124,4.124,0,0,0,0,11.442V50.8a4.124,4.124,0,0,0,4.119,4.119H51.26a3.661,3.661,0,0,0,3.661-3.661V17.392A3.661,3.661,0,0,0,52.176,13.86ZM48.514,9.154a1.831,1.831,0,0,1,1.831,1.831V13.73H45.639L43.015,9.154ZM36.248,2.872a.915.915,0,0,1,1.25.339l6.03,10.519H41.424l-2.78-4.851A.915.915,0,0,0,37.4,8.54a2.746,2.746,0,0,1-3.753-1.016.913.913,0,0,0-1.25-.337L27.648,9.92a.916.916,0,0,0,.843,1.628l4.1-2.362A4.592,4.592,0,0,0,37.462,10.5l1.855,3.226H17.337Zm-8.934-.8a.868.868,0,0,1,.657-.242.89.89,0,0,1,.628.3l1.818,1.979L19.5,10.376c-.008,0-.018.012-.027.016l-3.265,1.874Zm-9.19,1.076a.925.925,0,0,1,1.282-.241l2.463,1.683L11.91,13.73H10.893ZM4.119,9.154H11.8L8.671,13.73H4.119a2.288,2.288,0,0,1,0-4.577ZM53.091,51.26a1.831,1.831,0,0,1-1.831,1.831H4.119A2.288,2.288,0,0,1,1.831,50.8V14.864a4.1,4.1,0,0,0,2.288.7H51.26a1.831,1.831,0,0,1,1.831,1.831Z" transform="translate(0 0)" fill="#2f0a00"/>
        <path id="Shape-4" data-name="Shape" d="M8.577,53.661H5.831V50.915a.915.915,0,0,0-1.831,0v3.661a.915.915,0,0,0,.915.915H8.577a.915.915,0,0,0,0-1.831Z" transform="translate(-0.339 -4.232)" fill="#2f0a00"/>
        <path id="Shape-5" data-name="Shape" d="M54.577,19H50.915a.915.915,0,0,0,0,1.831h2.746v2.746a.915.915,0,1,0,1.831,0V19.915A.915.915,0,0,0,54.577,19Z" transform="translate(-4.232 -1.608)" fill="#2f0a00"/>
      </g>
    </g>
  </g>
</svg>
