<svg xmlns="http://www.w3.org/2000/svg" xmlns:xlink="http://www.w3.org/1999/xlink" id="Group_36" data-name="Group 36" width="174" height="53.779" viewBox="0 0 174 53.779">
  <defs><script xmlns=""/>
    <clipPath id="clip-path">
      <rect id="Rectangle_82" data-name="Rectangle 82" width="174" height="53.779" fill="none"/>
    </clipPath>
  </defs>
  <path id="Path_22" data-name="Path 22" d="M234.873,107.933l.857-3.019v-2.269l1.322-.536,2.5-6.806h5.377l3.055,8,1.375,2.536v2.09h-3.876l-.893-2.661h-4.841l-.768,2.661Zm6.056-5.788h2.68l-1.179-3.555h-.375Z" transform="translate(-183.108 -74.3)" fill="#1e1e1e"/>
  <path id="Path_23" data-name="Path 23" d="M306.635,107.87l-.357-1.072.357-1.786V95.223h3.93v6.806l-.178,2.447h.357l3.2-.179,1.268-.179,1.572,2.608-.875,1.143Z" transform="translate(-238.776 -74.236)" fill="#1e1e1e"/>
  <path id="Path_24" data-name="Path 24" d="M359.155,107.87,358.8,106.8l.357-1.786V95.223h3.93v6.806l-.178,2.447h.357l3.2-.179,1.268-.179,1.572,2.608-.875,1.143Z" transform="translate(-279.721 -74.236)" fill="#1e1e1e"/>
  <g id="Group_11" data-name="Group 11">
    <g id="Group_10" data-name="Group 10" clip-path="url(#clip-path)">
      <path id="Path_25" data-name="Path 25" d="M434.555,107.416a11.052,11.052,0,0,1-1.938-.17,10.013,10.013,0,0,1-1.688-.437,3.679,3.679,0,0,1-1.054-.536V102.54a10.541,10.541,0,0,0,1.518.679,11.492,11.492,0,0,0,1.706.473,8.588,8.588,0,0,0,1.652.17q1.09,0,1.089-.5a.511.511,0,0,0-.223-.42,3.1,3.1,0,0,0-.777-.366q-.553-.2-1.572-.5a14.447,14.447,0,0,1-2.01-.786,3.208,3.208,0,0,1-1.268-1.054,3,3,0,0,1-.438-1.715,3.561,3.561,0,0,1,1.483-2.983,7.1,7.1,0,0,1,4.341-1.126q.571,0,1.223.045a9.935,9.935,0,0,1,1.045.116l2.2,1.483-.893,2.715-4.573-1.161q-.714,0-.714.482a.708.708,0,0,0,.456.616,13.13,13.13,0,0,0,1.652.652,13.232,13.232,0,0,1,2.528,1.1,3.7,3.7,0,0,1,1.349,1.277,3.35,3.35,0,0,1,.411,1.7,3.515,3.515,0,0,1-1.375,2.885,6.527,6.527,0,0,1-4.126,1.1" transform="translate(-334.882 -73.604)" fill="#1e1e1e"/>
      <path id="Path_26" data-name="Path 26" d="M485.808,107.87V98.635l-3.573.179v-3.59H493.4v3.59l-3.662-.179v6.377l.2,1.786-.2,1.072Z" transform="translate(-375.954 -74.236)" fill="#1e1e1e"/>
      <path id="Path_27" data-name="Path 27" d="M530.46,107.933l.857-3.019v-2.269l1.322-.536,2.5-6.806h5.377l3.055,8,1.375,2.536v2.09h-3.876l-.893-2.661h-4.841l-.768,2.661Zm6.055-5.788h2.68l-1.179-3.555h-.375Z" transform="translate(-413.55 -74.3)" fill="#1e1e1e"/>
      <path id="Path_28" data-name="Path 28" d="M602.221,107.87V98.1l-.357-1.8.357-1.072h6.431a6.04,6.04,0,0,1,2.483.465,3.3,3.3,0,0,1,1.59,1.491,5.7,5.7,0,0,1,.554,2.706,5.54,5.54,0,0,1-.518,2.554,3.465,3.465,0,0,1-1.518,1.518l.3.25,1.232,1.679,1.018.911v1.072h-4.734L607.1,104.6h-.947v.393l.179,1.786-.179,1.09Zm3.93-6.609h1.036a9.463,9.463,0,0,0,1.081-.053,1.081,1.081,0,0,0,.706-.331,1.329,1.329,0,0,0,.25-.9,1.364,1.364,0,0,0-.268-.947,1.2,1.2,0,0,0-.741-.348,8.572,8.572,0,0,0-1.1-.063h-1.143Z" transform="translate(-469.217 -74.236)" fill="#1e1e1e"/>
      <path id="Path_29" data-name="Path 29" d="M243.249,183.416a9.575,9.575,0,0,1-2.277-.277,5.556,5.556,0,0,1-2.072-.992,5.018,5.018,0,0,1-1.509-1.983,9.53,9.53,0,0,1,0-6.5,5.023,5.023,0,0,1,1.509-1.983,5.562,5.562,0,0,1,2.072-.991,9.564,9.564,0,0,1,2.277-.277,9.307,9.307,0,0,1,2.278.286,5.681,5.681,0,0,1,2.072,1,5.025,5.025,0,0,1,1.509,1.983,9.432,9.432,0,0,1,0,6.467,5.02,5.02,0,0,1-1.509,1.983,5.667,5.667,0,0,1-2.072,1,9.307,9.307,0,0,1-2.278.286m0-3.573a2.151,2.151,0,0,0,1.751-.705,4.473,4.473,0,0,0,0-4.439,2.139,2.139,0,0,0-1.751-.715q-2.322,0-2.322,2.93a3.481,3.481,0,0,0,.581,2.215,2.11,2.11,0,0,0,1.742.715" transform="translate(-184.625 -132.854)" fill="#1e1e1e"/>
      <path id="Path_30" data-name="Path 30" d="M303.149,183.933v-9.771l-.357-1.786.357-1.072h3.591l3.608,4.5.857,1.483h.178V171.3h4.126v1.072l-.179,1.786v9.771h-3.555l-4.483-6.109h-.179V178.9l.179,5.037Z" transform="translate(-236.059 -133.55)" fill="#1e1e1e"/>
      <path id="Path_31" data-name="Path 31" d="M370.582,183.87l-.357-1.072.357-1.786v-9.789h3.93v6.806l-.179,2.447h.357l3.2-.179,1.268-.179,1.572,2.608-.875,1.143Z" transform="translate(-288.63 -133.486)" fill="#1e1e1e"/>
      <path id="Path_32" data-name="Path 32" d="M422.923,183.87v-9.789l-.179-1.786.179-1.072h3.948V183.87Z" transform="translate(-329.574 -133.486)" fill="#1e1e1e"/>
      <path id="Path_33" data-name="Path 33" d="M451.551,183.933v-9.771l-.357-1.786.357-1.072h3.591l3.608,4.5.857,1.483h.178V171.3h4.126v1.072l-.179,1.786v9.771h-3.555l-4.484-6.109h-.179V178.9l.179,5.037Z" transform="translate(-351.753 -133.55)" fill="#1e1e1e"/>
      <path id="Path_34" data-name="Path 34" d="M518.983,183.87l-.357-1.072.357-1.786v-9.789h9.2l.893.536L527.9,174.8l-1.608-.178h-3.34v1.429h4.412v2.947H524.9l-1.947-.179v1.661H527.9l2.126,2.251-1.054,1.143Z" transform="translate(-404.324 -133.486)" fill="#1e1e1e"/>
      <path id="Path_35" data-name="Path 35" d="M599.688,183.416a13.781,13.781,0,0,1-2.858-.277,5.768,5.768,0,0,1-2.268-.992,4.583,4.583,0,0,1-1.492-1.983,8.549,8.549,0,0,1-.527-3.251,8.128,8.128,0,0,1,.554-3.233,4.814,4.814,0,0,1,1.509-1.983,5.8,5.8,0,0,1,2.17-1,11.059,11.059,0,0,1,2.536-.286,13.4,13.4,0,0,1,1.608.089,11.705,11.705,0,0,1,1.322.232l2.429,1.411-1.25,3.144-3.948-1.2a3.99,3.99,0,0,0-1.411.241,2.027,2.027,0,0,0-1.027.857,3.3,3.3,0,0,0-.384,1.742,3.185,3.185,0,0,0,.741,2.4,2.97,2.97,0,0,0,2.1.688,4.822,4.822,0,0,0,.857-.063,3.251,3.251,0,0,0,.572-.152v-.983h-1.554V176h5.68l.2,1.072-.393,1.84v3.751q-.2.071-.884.25a17.324,17.324,0,0,1-4.278.5" transform="translate(-461.95 -132.854)" fill="#1e1e1e"/>
      <path id="Path_36" data-name="Path 36" d="M658.085,183.87v-5.18l-4.43-6.395v-1.072h4.484l1.786,3.68h.357l1.768-3.68h4.466v1.072l-4.555,6.5.107,1.8v3.269Z" transform="translate(-509.593 -133.486)" fill="#1e1e1e"/>
      <path id="Path_37" data-name="Path 37" d="M718.447,183.933v-9.771l-.357-1.786.375-1.072h4.162l3.5,6.252h.357l2.894-6.252h4.269l.179,1.072-.179,1.715v9.843H729.7l.053-1.519v-4.984h-.2l-.679,1.876-1.286,2.84h-2.858l-2.108-4.716h-.179v1.447l.179,5.055Z" transform="translate(-559.828 -133.55)" fill="#1e1e1e"/>
      <path id="Path_38" data-name="Path 38" d="M2.816,22.3A16.677,16.677,0,0,1,4.2,24.494a.281.281,0,0,0,.269.153c5.6-.342,7.94.743,11.866,5.483a.285.285,0,0,0,.217.1c3.929.021,6.075.991,8.566,3.963a.281.281,0,0,0,.494-.144,1.351,1.351,0,0,1,.057-.274l.516-1.5c.334-.972,1.009-1.789,1.342-2.692a.272.272,0,0,1,.061-.1A16.827,16.827,0,0,0,29.8,25.748c.823-1.481,1.886-4.612,1.337-6.325a.3.3,0,0,0-.127-.168c-.276-.165-.419-.648-.577-.878-.079-.116-.383-.247-.493-.329-.211-.157-.423-.347-.644-.545a.283.283,0,0,0-.362-.011q-2.264,1.756-2.529-1.234a.284.284,0,0,0-.129-.21,3.288,3.288,0,0,1-1.83-2.542c0-.008,0-.016,0-.023a26.69,26.69,0,0,1-.254-2.841.28.28,0,0,1,.137-.231,8.709,8.709,0,0,1,3.307-1.283.281.281,0,0,0,.239-.366l-.549-1.69a3.564,3.564,0,0,0-6.778,0L16.538,19.4a3.564,3.564,0,0,1-3.389,2.462H3.045A.279.279,0,0,0,2.816,22.3Z" transform="translate(-2.156 -3.593)" fill="#edc006"/>
      <path id="Path_39" data-name="Path 39" d="M57.1,82.887H47.024a.281.281,0,0,0-.281.291q.133,3.851.494,7.82a.29.29,0,0,1-.008.1q-1.621,6.126-2.975,7.548a.271.271,0,0,0-.075.169q-.241,4.07-1.217,4.557a4.315,4.315,0,0,0-1.184,1.4.308.308,0,0,0-.017.033,2.376,2.376,0,0,1-1.3,1.349.214.214,0,0,0-.037.019c-1.332.842-4.367,1.238-6.016,1.538-2.514.457-5.394.142-7.964.141l-.036,0q-3.769-.461-7.057-4.64a.281.281,0,0,0-.455.019q-.291.437-.6.829a.28.28,0,0,0-.045.084l-3.23,9.942a3.283,3.283,0,0,0,5.051,3.67l11.186-8.127a3.564,3.564,0,0,1,4.189,0l10.486,7.619a3.564,3.564,0,0,0,5.484-3.984l-4.068-12.521a3.283,3.283,0,0,1,1.193-3.67L59.2,89.334A3.564,3.564,0,0,0,57.1,82.887" transform="translate(-11.582 -64.619)" fill="#edc006"/>
      <path id="Path_40" data-name="Path 40" d="M.051,17.691a16.677,16.677,0,0,1,1.38,2.193.281.281,0,0,0,.269.153c5.6-.342,7.94.743,11.866,5.483a.285.285,0,0,0,.217.1c3.929.021,6.075.991,8.566,3.963a.281.281,0,0,0,.494-.144,1.351,1.351,0,0,1,.057-.274l.516-1.5c.334-.972,1.009-1.789,1.342-2.692a.272.272,0,0,1,.061-.1,16.827,16.827,0,0,0,2.213-3.738c.823-1.481,1.886-4.612,1.337-6.325a.3.3,0,0,0-.127-.168c-.276-.165-.419-.648-.577-.878-.079-.116-.383-.247-.493-.329-.211-.157-.423-.347-.644-.545a.283.283,0,0,0-.362-.011q-2.264,1.756-2.529-1.234a.284.284,0,0,0-.129-.21A3.288,3.288,0,0,1,21.678,8.9c0-.008,0-.016,0-.023a26.69,26.69,0,0,1-.254-2.841A.28.28,0,0,1,21.56,5.8a8.709,8.709,0,0,1,3.307-1.283.281.281,0,0,0,.239-.366l-.549-1.69a3.564,3.564,0,0,0-6.778,0L13.773,14.79a3.564,3.564,0,0,1-3.389,2.462H.28A.279.279,0,0,0,.051,17.691Z" transform="translate(0)" fill="#f26c2d"/>
      <path id="Path_41" data-name="Path 41" d="M54.339,78.278H44.259a.281.281,0,0,0-.281.291q.133,3.851.494,7.82a.29.29,0,0,1-.008.1q-1.621,6.126-2.975,7.548a.271.271,0,0,0-.075.169q-.241,4.07-1.217,4.557a4.315,4.315,0,0,0-1.184,1.4.308.308,0,0,0-.017.033,2.376,2.376,0,0,1-1.3,1.349.215.215,0,0,0-.037.019c-1.332.842-4.367,1.238-6.016,1.538-2.514.457-5.394.142-7.964.141l-.036,0q-3.769-.461-7.057-4.64a.281.281,0,0,0-.455.019q-.291.437-.6.829a.279.279,0,0,0-.045.084l-3.23,9.942a3.282,3.282,0,0,0,5.051,3.67L28.5,105.02a3.564,3.564,0,0,1,4.189,0l10.486,7.619a3.564,3.564,0,0,0,5.484-3.984L44.59,96.133a3.283,3.283,0,0,1,1.193-3.67l10.651-7.739a3.564,3.564,0,0,0-2.095-6.447" transform="translate(-9.426 -61.026)" fill="#f26c2d"/>
    </g>
  </g>
<script xmlns=""/></svg>